<?xml version="1.0" encoding="UTF-8"?>
<svg version="1.1" xmlns="http://www.w3.org/2000/svg" width="250" height="634">
<path d="M0 0 C1.10730469 0.66515625 2.21460937 1.3303125 3.35546875 2.015625 C4.73305785 2.79919521 6.11209368 3.58022479 7.4921875 4.359375 C8.27255371 4.81570312 9.05291992 5.27203125 9.85693359 5.7421875 C14.74195479 8.51282305 19.7755055 11.00352568 24.77929688 13.55099487 C35.44329905 18.99758298 46.00958791 24.61804687 56.49072266 30.40917969 C57.71734619 31.0864209 57.71734619 31.0864209 58.96875 31.77734375 C59.66395752 32.16365967 60.35916504 32.54997559 61.07543945 32.94799805 C64.52767868 34.79144666 68.04253924 36.51541024 71.54296875 38.265625 C71.54296875 91.725625 71.54296875 145.185625 71.54296875 200.265625 C73.19296875 200.925625 74.84296875 201.585625 76.54296875 202.265625 C77.86296875 202.925625 79.18296875 203.585625 80.54296875 204.265625 C80.54296875 150.805625 80.54296875 97.345625 80.54296875 42.265625 C92.09296875 36.325625 103.64296875 30.385625 115.54296875 24.265625 C123.89070725 19.73479329 123.89070725 19.73479329 132.21875 15.16796875 C138.55026908 11.69357646 144.94980939 8.35082924 151.35546875 5.015625 C152.4552002 4.44158936 153.55493164 3.86755371 154.68798828 3.27612305 C155.69845215 2.75187744 156.70891602 2.22763184 157.75 1.6875 C159.10315308 0.98512207 159.10315308 0.98512207 160.48364258 0.26855469 C162.54296875 -0.734375 162.54296875 -0.734375 163.54296875 -0.734375 C163.54296875 159.645625 163.54296875 320.025625 163.54296875 485.265625 C154.63296875 489.885625 145.72296875 494.505625 136.54296875 499.265625 C128.60701064 503.60701454 128.60701064 503.60701454 120.67578125 507.95703125 C113.52127022 511.84513962 106.29797634 515.60040579 99.06524658 519.34042358 C97.5553866 520.12130943 96.04622541 520.90354795 94.53778076 521.68716431 C92.42193919 522.78539242 90.3032775 523.87795988 88.18359375 524.96875 C87.54195282 525.3024913 86.90031189 525.6362326 86.23922729 525.98008728 C81.77253692 528.265625 81.77253692 528.265625 79.54296875 528.265625 C79.21296875 457.645625 78.88296875 387.025625 78.54296875 314.265625 C68.31296875 308.985625 58.08296875 303.705625 47.54296875 298.265625 C36.66796875 292.328125 36.66796875 292.328125 31.45703125 289.45703125 C23.3501686 285.04013989 15.11260205 280.87285013 6.89541626 276.66622925 C-3.90184081 271.13587408 -14.60175037 265.4568145 -25.21875 259.5859375 C-28.59225343 257.72310245 -31.99375183 255.95530252 -35.45703125 254.265625 C-33.89998357 259.72027444 -32.14909347 263.99178096 -27.52929688 267.46972656 C-23.97658552 269.43413128 -20.39371641 271.19807974 -16.70703125 272.890625 C-15.43594792 273.50330079 -14.16639713 274.11916672 -12.8984375 274.73828125 C-10.59709325 275.85998113 -8.28955336 276.95743757 -5.96972656 278.04150391 C-3.45703125 279.265625 -3.45703125 279.265625 -2.45703125 280.265625 C-2.36071966 281.60004043 -2.33331145 282.93951171 -2.33398342 284.27739811 C-2.33199237 285.14675466 -2.33000132 286.0161112 -2.32794994 286.91181189 C-2.33086278 287.87774517 -2.33377562 288.84367846 -2.33677673 289.83888245 C-2.33592231 290.85654141 -2.33506788 291.87420037 -2.33418757 292.92269748 C-2.3325297 296.3606732 -2.33805913 299.79860099 -2.34350586 303.23657227 C-2.34378769 305.68989053 -2.34363008 308.14320888 -2.34306335 310.5965271 C-2.34283503 315.89273771 -2.34568643 321.18893318 -2.35130119 326.48513985 C-2.35941402 334.14264793 -2.36203119 341.80015006 -2.36328918 349.45766198 C-2.36548005 361.88022529 -2.37214106 374.30278205 -2.3815918 386.7253418 C-2.39076503 398.79565396 -2.3978463 410.86596435 -2.40209961 422.9362793 C-2.40236233 423.67977847 -2.40262506 424.42327765 -2.40289574 425.1893071 C-2.40420074 428.9190702 -2.40546446 432.64883331 -2.40670764 436.37859643 C-2.41708132 467.34094405 -2.43477469 498.30328353 -2.45703125 529.265625 C-6.71496953 527.59929108 -10.76668132 525.64809527 -14.828125 523.5546875 C-15.8935276 523.00837929 -15.8935276 523.00837929 -16.98045349 522.45103455 C-19.28658315 521.26700248 -21.59070282 520.07912779 -23.89453125 518.890625 C-24.68224915 518.48512421 -25.46996704 518.07962341 -26.28155518 517.66183472 C-36.55338701 512.37183218 -46.77206661 507.00250257 -56.88720703 501.41723633 C-64.20587887 497.37794992 -71.60049236 493.49373 -79.02490234 489.65258789 C-79.8545752 489.22196045 -80.68424805 488.79133301 -81.5390625 488.34765625 C-82.64084839 487.77881714 -82.64084839 487.77881714 -83.76489258 487.19848633 C-85.45703125 486.265625 -85.45703125 486.265625 -86.45703125 485.265625 C-86.55575787 482.9140307 -86.58882516 480.59181853 -86.58007908 478.23969936 C-86.58123292 477.49228435 -86.58238677 476.74486934 -86.58357558 475.97480538 C-86.58624931 473.43829565 -86.58171391 470.90184778 -86.57728577 468.36534119 C-86.57772131 466.54131622 -86.57859592 464.71729131 -86.57987493 462.89326674 C-86.58212313 457.85602255 -86.5780942 452.81879942 -86.57309687 447.78155792 C-86.56879718 442.35889361 -86.57023845 436.93623059 -86.57099915 431.51356506 C-86.57152469 422.11013951 -86.56837474 412.70672086 -86.56276131 403.30329704 C-86.55465039 389.70735492 -86.55203151 376.11141616 -86.55077332 362.51547188 C-86.54858215 340.45945006 -86.54192033 318.40343193 -86.5324707 296.34741211 C-86.52329099 274.9160972 -86.51620507 253.48478328 -86.51196289 232.0534668 C-86.51170017 230.73347747 -86.51143744 229.41348815 -86.51116676 228.05349915 C-86.50986177 221.4318103 -86.50859805 214.81012144 -86.50735486 208.18843257 C-86.49698024 153.21416083 -86.47936018 98.23989309 -86.45703125 43.265625 C-82.95181088 41.34843867 -79.44570803 39.43287169 -75.93945312 37.51757812 C-74.95483093 36.97901184 -73.97020874 36.44044556 -72.95574951 35.88555908 C-65.34576168 31.73012083 -57.68002667 27.70740158 -49.95703125 23.765625 C-40.12086658 18.72073474 -30.35564153 13.56367548 -20.68359375 8.20898438 C-19.07733582 7.32158433 -17.46655493 6.44230963 -15.85083008 5.57226562 C-14.17113297 4.65541311 -12.51069847 3.70280087 -10.8659668 2.72460938 C-4.39164014 -0.93291339 -4.39164014 -0.93291339 0 0 Z M-7.45703125 52.265625 C-7.90501622 54.71867672 -7.90501622 54.71867672 -7.8177948 57.6312561 C-7.82191879 58.76991623 -7.82604279 59.90857635 -7.83029175 61.08174133 C-7.81950592 62.33690048 -7.80872009 63.59205963 -7.79760742 64.88525391 C-7.7980455 66.20227798 -7.79848358 67.51930206 -7.79893494 68.87623596 C-7.7997978 72.49389271 -7.78212528 76.11125274 -7.76121306 79.72884035 C-7.74249458 83.50714913 -7.74069965 87.28546426 -7.73713684 91.06381226 C-7.72780213 98.22137845 -7.70316916 105.37880763 -7.67308837 112.53631341 C-7.63958862 120.68370661 -7.62306951 128.83110626 -7.60800207 136.97855115 C-7.57662075 153.74099164 -7.52323038 170.50328546 -7.45703125 187.265625 C-2.50703125 189.740625 -2.50703125 189.740625 2.54296875 192.265625 C2.61234506 174.04645256 2.66591629 155.82732529 2.69840527 137.60804939 C2.71388982 129.14897293 2.73500954 120.68997993 2.76928711 112.23095703 C2.79914101 104.86010938 2.81853219 97.48932214 2.82523423 90.11841571 C2.82915334 86.21370585 2.83839639 82.30916889 2.86015892 78.40451431 C2.88046094 74.73229236 2.88681543 71.06031519 2.88229179 67.38804245 C2.88351583 65.39167924 2.89969074 63.39534293 2.91622925 61.39904785 C2.91210526 60.21831696 2.90798126 59.03758606 2.9037323 57.82107544 C2.90649768 56.79051088 2.90926306 55.75994633 2.91211224 54.69815254 C2.79029489 53.89541845 2.66847754 53.09268436 2.54296875 52.265625 C-1.55616733 49.53286761 -3.35789517 49.53286761 -7.45703125 52.265625 Z " fill="#F79520" transform="translate(86.45703125,0.734375)"/>
<path d="M0 0 C0.18550513 8.64907153 0.32757534 17.29745684 0.41449738 25.94808483 C0.45622064 29.96521024 0.5127878 33.98097327 0.60351562 37.99731445 C0.6905572 41.87481835 0.73829569 45.75101381 0.75901794 49.62941933 C0.7737805 51.10756346 0.80261194 52.58563725 0.84584045 54.06322289 C1.1698723 65.59960831 1.1698723 65.59960831 -1.6109314 68.92835999 C-3.69562366 70.26537538 -5.67910613 71.14753546 -8 72 C-9.59448975 72.86830444 -9.59448975 72.86830444 -11.22119141 73.75415039 C-12.25421387 74.28000732 -13.28723633 74.80586426 -14.3515625 75.34765625 C-15.52025879 75.94618408 -16.68895508 76.54471191 -17.89306641 77.16137695 C-18.50096008 77.47096344 -19.10885376 77.78054993 -19.73516846 78.09951782 C-29.10486194 82.87393693 -38.42422416 87.71854276 -47.625 92.8125 C-57.9008084 98.49072104 -68.34158797 103.83150948 -78.79498291 109.17260742 C-88.94958522 114.36314227 -99.04167316 119.6299873 -108.99023438 125.20898438 C-110.5300035 126.06639938 -112.0784238 126.90850382 -113.63598633 127.7331543 C-115.33390682 128.6430489 -117.00315658 129.60721505 -118.65112305 130.60473633 C-125.38790822 134.32533444 -125.38790822 134.32533444 -129.67236328 133.46069336 C-132.54671914 132.19026712 -135.13841215 130.7130964 -137.8125 129.0625 C-138.8118457 128.49418457 -139.81119141 127.92586914 -140.84082031 127.34033203 C-142.91404405 126.15941073 -144.97775875 124.96164256 -147.03173828 123.74755859 C-151.38218365 121.18624194 -155.81332289 118.78268575 -160.25 116.375 C-161.11923096 115.89683838 -161.98846191 115.41867676 -162.8840332 114.92602539 C-171.66832362 110.11270504 -180.58255639 105.55979073 -189.5 101 C-199.35268389 95.96191825 -209.17887823 90.8981555 -218.875 85.5625 C-229.17537276 79.90365324 -239.58930372 74.45322186 -250 69 C-250 46.56 -250 24.12 -250 1 C-245.61884385 2.46038538 -242.27244903 3.78526543 -238.30859375 5.94921875 C-237.21369629 6.5424292 -236.11879883 7.13563965 -234.99072266 7.74682617 C-234.41283997 8.06251556 -233.83495728 8.37820496 -233.23956299 8.70346069 C-230.12001325 10.40693032 -226.9916981 12.09413491 -223.86328125 13.78125 C-223.21562805 14.13080246 -222.56797485 14.48035492 -221.9006958 14.84049988 C-215.02068064 18.54422682 -208.07572546 22.11883079 -201.125 25.6875 C-192.81559275 29.95757592 -184.55204543 34.29290648 -176.375 38.8125 C-161.11416706 47.2430934 -145.53591834 55.09142876 -130 63 C-129.31292969 63.46148438 -128.62585938 63.92296875 -127.91796875 64.3984375 C-125.85077959 65.25583388 -125.85077959 65.25583388 -123.23291016 64.04052734 C-121.65195557 63.19675537 -121.65195557 63.19675537 -120.0390625 62.3359375 C-119.46137115 62.03306824 -118.88367981 61.73019897 -118.28848267 61.41815186 C-116.39217362 60.41892304 -114.50895325 59.39730618 -112.625 58.375 C-111.30115368 57.67169898 -109.97660142 56.96972524 -108.65136719 56.26904297 C-100.28127744 51.8286537 -91.96804499 47.280269 -83.67236328 42.70263672 C-75.36388177 38.14014087 -66.93618547 33.81979651 -58.5 29.5 C-46.37073541 23.2885459 -34.35638782 16.9050932 -22.41943359 10.33007812 C-18.39416576 8.11719627 -14.35888056 5.92401938 -10.3125 3.75 C-9.61060547 3.36650391 -8.90871094 2.98300781 -8.18554688 2.58789062 C-3.34478336 0 -3.34478336 0 0 0 Z " fill="#F79520" transform="translate(250,500)"/>
<path d="M0 0 C3.63500258 0.67308929 6.46978442 1.57043176 9.74609375 3.30078125 C11.10976074 4.01596924 11.10976074 4.01596924 12.50097656 4.74560547 C13.95455566 5.52121826 13.95455566 5.52121826 15.4375 6.3125 C16.95102051 7.11131592 16.95102051 7.11131592 18.49511719 7.92626953 C29.05175489 13.51633242 39.53012736 19.2496238 50 25 C53.63 26.98 57.26 28.96 61 31 C61 102.28 61 173.56 61 247 C53.08 251.455 53.08 251.455 45 256 C39.97712381 258.93239124 39.97712381 258.93239124 34.96484375 261.8828125 C31.1988706 263.30187485 28.72759745 263.27976994 25 262 C20.76206113 260.02964229 16.69894502 257.78704184 12.625 255.5 C10.96791016 254.58927734 10.96791016 254.58927734 9.27734375 253.66015625 C1.19829584 249.19829584 1.19829584 249.19829584 0 248 C-0.09808708 244.81448052 -0.12990073 241.65062218 -0.12025452 238.46470642 C-0.12110894 237.45113101 -0.12196337 236.4375556 -0.12284368 235.39326578 C-0.12450154 231.96910954 -0.11897214 228.5450014 -0.11352539 225.12084961 C-0.11324356 222.67738343 -0.11340117 220.23391718 -0.1139679 217.79045105 C-0.11419622 212.51552134 -0.11134483 207.24060683 -0.10573006 201.96568108 C-0.09761721 194.33894208 -0.09500006 186.71220906 -0.09374207 179.08546621 C-0.09155121 166.71281719 -0.0848902 154.34017475 -0.07543945 141.9675293 C-0.06626621 129.94571974 -0.05918495 117.92391196 -0.05493164 105.90209961 C-0.05466892 105.16158743 -0.05440619 104.42107525 -0.05413551 103.65812331 C-0.05283051 99.94334428 -0.05156679 96.22856524 -0.05032361 92.5137862 C-0.03994993 61.67585268 -0.02225658 30.83792734 0 0 Z " fill="#F79520" transform="translate(95,288)"/>
</svg>
